<svg xmlns="http://www.w3.org/2000/svg" viewBox="0 0 75 14"><path fill="#FFF" d="M8,5 h9v9h-9v-9 h-7 v5 h1 v1 h2 v1 h1 v-1 h1 v-2 h-1 v1 h-2 v-1 h-1 v-1 h-1 v-3 h23 v5 h-1 v1 h-2 v1 h-1 v-1 h-1 v-2 h1 v1 h2 v-1 h1 v-1 h1 v-3 M33,5 h9 v5 h3 v1 h1 v-1 h1 v-1 h1 v2 h-1 v1 h-1 v1 h-1 v-1 h-1v-2 h-3 v1 h-7 v-1 h-4 v1 h-1 v-1 h-1 v-1 h-1 v2 h1 v1 h1 v1 h1 v-1 h1 v-2 h2 M58,6 h9 v5 h4 v1 h3 v-1 h-1 v2 h-3 v-2 h-4 v1 h-7 v-1 h-5 v1 h-3 v-1 h1 v2 h3 v-2 h3"/><path fill="#887" d="M4,14 v-2 h1 v2 h2 v-1 h1 v-2 h1 v1 h5 v-2 h-3 v3 h3 v-1 h2 v-1 h1 v2 h1 v1 h2 v-2 h1 v2 h8 v-1 h1 v1 h2 v-1 h1 v-1 h1 v-1 h7 v1 h1 v1 h1 v1 h2 v-1 h1 v1 h8 v-1 h1 v1 h1 v-1 h1 v-1 h1 v-1 h1 v1 h7 v-1 h1 v1 h1 v1 h1 v1 h1 v-1 h1 v1"/><path fill="#554" d="M10,2 h5 v1 h1 v6 h2 v-1 h1 v-1 h1 v-2 h-2 v-1 h1 v2 h-2 v-1 h-9 v1 h-2 v-2 h1 v1 h-2 v2 h1 v1 h1 v1 h2 v-6 h1 v4 h1 v-1 h3 v1 h1 v-1 h-5 v2 h5 v1 h-3 v2 h1 v-2 h1 v3 h-3 v-3 h-1 M35,2 h5 v1 h1 v5 h1 v1 h1 v-1 h2 v-1 h1 v-2 h-1 v1 h-3 v-1 h-9 v1 h-3 v-1 h-1 v2 h1 v1 h2 v1 h1 v-1 h1 v-5 h1 v4 h1 v-1 h3 v1 h1 v-1 h-5 v4 h5 v-1 h-5 M60,3 h5 v1 h1 v4 h-2 v3 h-3 v-1 h3 v-1 h3 v2 h2 v-1 h1 v-2 h1 v1 h-3 v-1 h-1 v-2 h-9 v2 h-1 v1 h-3 v-1 h1 v2 h1 v1 h2 v-2 h3 v-1 h-2 v-4 h1"/></svg>