<?xml version="1.0" encoding="UTF-8" standalone="no"?>
<!-- Created with Inkscape (http://www.inkscape.org/) -->

<svg
   xmlns:dc="http://purl.org/dc/elements/1.1/"
   xmlns:cc="http://creativecommons.org/ns#"
   xmlns:rdf="http://www.w3.org/1999/02/22-rdf-syntax-ns#"
   xmlns:svg="http://www.w3.org/2000/svg"
   xmlns="http://www.w3.org/2000/svg"
   xmlns:sodipodi="http://sodipodi.sourceforge.net/DTD/sodipodi-0.dtd"
   xmlns:inkscape="http://www.inkscape.org/namespaces/inkscape"
   width="800"
   height="600"
   viewBox="0 0 211.66667 158.75"
   version="1.1"
   id="svg8"
   inkscape:version="0.92.1 r15371"
   sodipodi:docname="puzzle.svg">
  <defs
     id="defs2" />
  <sodipodi:namedview
     id="base"
     pagecolor="#ffffff"
     bordercolor="#666666"
     borderopacity="1.0"
     inkscape:pageopacity="0.0"
     inkscape:pageshadow="2"
     inkscape:zoom="1.4"
     inkscape:cx="622.61579"
     inkscape:cy="132.58004"
     inkscape:document-units="mm"
     inkscape:current-layer="svg8"
     showgrid="false"
     units="px"
     inkscape:window-width="1920"
     inkscape:window-height="1017"
     inkscape:window-x="-8"
     inkscape:window-y="-8"
     inkscape:window-maximized="1" />
  <metadata
     id="metadata5">
    <rdf:RDF>
      <cc:Work
         rdf:about="">
        <dc:format>image/svg+xml</dc:format>
        <dc:type
           rdf:resource="http://purl.org/dc/dcmitype/StillImage" />
        <dc:title></dc:title>
      </cc:Work>
    </rdf:RDF>
  </metadata>
  <path
     inkscape:connector-curvature="0"
     style="opacity:1;vector-effect:none;fill:#000000;fill-opacity:1;fill-rule:nonzero;stroke:#000000;stroke-width:0.26458333;stroke-linecap:butt;stroke-linejoin:miter;stroke-miterlimit:4;stroke-dasharray:none;stroke-dashoffset:0;stroke-opacity:1"
     d="M 107.78464,81.639461 C 106.55059,81.817669 105.25015,82.029171 104.05411,82.188265 101.10269,82.580857 98.26475,82.916629 95.52957,83.200606 92.79439,83.484583 90.16156,83.716983 87.621009,83.903406 85.080456,84.089831 82.631896,84.230322 80.264352,84.330255 77.896807,84.430186 75.610643,84.489209 73.394485,84.513707 71.17833,84.538202 69.032176,84.527743 66.945785,84.487868 64.859392,84.44799 62.832414,84.379005 60.854167,84.285813 61.244062,83.192523 61.574463,82.130586 61.848421,81.100476 62.122378,80.070368 62.340236,79.071865 62.505746,78.105311 62.671256,77.138759 62.784321,76.203972 62.848876,75.301349 62.913432,74.398723 62.929463,73.528463 62.900555,72.690139 62.871644,71.851812 62.797878,71.045849 62.682996,70.272197 62.568114,69.498547 62.411787,68.757166 62.218424,68.048562 62.025062,67.339954 61.794448,66.663965 61.530095,66.020776 61.265742,65.37759 60.967559,64.767276 60.639709,64.189881 60.311858,63.612486 59.954382,63.068137 59.570525,62.556907 59.186667,62.045676 58.776616,61.567577 58.344242,61.122884 57.91187,60.678193 57.456999,60.266634 56.983601,59.888851 56.510206,59.511069 56.018269,59.166856 55.51134,58.856357 55.004412,58.545858 54.482648,58.269276 53.949679,58.026433 53.416708,57.783591 52.872357,57.574414 52.320838,57.399598 51.769317,57.224783 51.210649,57.084331 50.648071,56.977919 50.085495,56.871506 49.519229,56.799031 48.953084,56.761394 48.386942,56.723757 47.820831,56.720582 47.258613,56.752091 46.696395,56.783601 46.1382,56.850016 45.587399,56.951048 45.036597,57.052076 44.493034,57.187852 43.96114,57.358773 43.429248,57.529697 42.909109,57.735635 42.403612,57.976824 41.898118,58.218013 41.407607,58.494404 40.936003,58.806232 40.464399,59.118056 40.011268,59.465706 39.581048,59.848545 39.150824,60.231383 38.743348,60.649542 38.361998,61.103765 37.980652,61.557986 37.625547,62.047981 37.300567,62.573959 36.975584,63.099938 36.680608,63.662053 36.419483,64.260162 36.158358,64.858271 35.931263,65.492276 35.741488,66.162887 35.551711,66.8335 35.399223,67.540718 35.288286,68.284205 35.177349,69.027692 35.107734,69.807377 35.083131,70.624114 35.058525,71.440851 35.079025,72.294325 35.148242,73.184682 35.21746,74.07504 35.335311,75.002589 35.505842,75.96694 35.676374,76.931291 35.899849,77.932688 36.179186,78.971408 36.458525,80.010125 36.793826,81.086178 37.18946,82.199634 33.541488,81.79243 29.903005,81.384585 26.17773,81.025546 24.315093,80.846026 22.431045,80.678452 20.51296,80.529452 18.594874,80.380452 16.642716,80.250108 14.645101,80.143946 12.647485,80.037785 10.604068,79.956206 8.50284,79.905202 6.401613,79.854196 4.242752,79.833437 2.013831,79.849907 1.36411,79.854709 0.661892,79.887274 0,79.898484 V 158.75 H 106.18783 C 106.33986,157.84572 106.44258,157.35004 106.60486,156.33464 107.18233,152.72141 107.81127,148.43772 108.4001,143.71526 108.69452,141.35403 108.97881,138.88309 109.24139,136.33173 109.50398,133.78037 109.74482,131.1484 109.95246,128.46503 108.72853,128.81543 107.54858,129.10559 106.41159,129.33939 105.27461,129.57319 104.18064,129.75061 103.12962,129.87579 102.07861,130.00098 101.07051,130.07397 100.10449,130.09852 99.13846,130.12307 98.21457,130.09943 97.33256,130.03134 96.45055,129.96325 95.61025,129.85077 94.81127,129.69803 94.01228,129.54528 93.25496,129.35228 92.53802,129.12287 91.82109,128.89345 91.14455,128.62773 90.50869,128.32963 89.87282,128.03154 89.277492,127.70089 88.721716,127.3421 88.16594,126.98331 87.64964,126.59604 87.172975,126.18455 86.696307,125.77305 86.258932,125.33748 85.860393,124.88127 85.461853,124.42505 85.102261,123.94846 84.780871,123.45551 84.459482,122.96257 84.176531,122.45327 83.93131,121.93158 83.686089,121.40989 83.478643,120.87567 83.308611,120.33322 83.138579,119.79078 83.006009,119.23996 82.910185,118.68475 82.814361,118.12953 82.755531,117.56991 82.732936,117.00991 82.71034,116.44991 82.724106,115.88929 82.773758,115.33249 82.823412,114.7757 82.908635,114.22291 83.029557,113.6773 83.15048,113.13169 83.307052,112.59349 83.498261,112.06706 83.689473,111.54063 83.915224,111.02585 84.17574,110.52659 84.436257,110.02733 84.731595,109.54375 85.060441,109.07965 85.389286,108.61554 85.752038,108.17098 86.14823,107.75001 86.544423,107.32904 86.973963,106.9313 87.436523,106.56145 87.899084,106.19161 88.394273,105.8495 88.92222,105.53878 89.450169,105.22805 90.0109,104.94886 90.60326,104.70524 91.19561,104.46161 91.81971,104.25365 92.47549,104.08512 93.13128,103.91658 93.81864,103.78766 94.53687,103.7022 95.2551,103.61674 96.00406,103.57464 96.78376,103.58024 97.56345,103.58584 98.37391,103.63888 99.2141,103.74354 100.05428,103.84819 100.92458,104.00469 101.82428,104.21638 102.72397,104.42807 103.65297,104.6953 104.61119,105.02201 105.5694,105.34873 106.55648,105.73449 107.57225,106.18422 108.58801,106.63395 109.63254,107.14758 110.70487,107.72831 110.67484,105.16696 110.59109,102.62408 110.44442,100.12309 110.29775,97.62209 110.08803,95.16261 109.80622,92.768494 109.66531,91.571444 109.50637,90.390794 109.32821,89.229184 109.15005,88.067564 108.95269,86.925454 108.73497,85.805098 108.51724,84.684744 108.27937,83.58608 108.01976,82.512795 107.9476,82.214441 107.86015,81.933892 107.78464,81.639461 Z"
     id="path5272" />
  <path
     inkscape:connector-curvature="0"
     style="opacity:1;vector-effect:none;fill:#000000;fill-opacity:1;fill-rule:nonzero;stroke:#000000;stroke-width:0.26458332;stroke-linecap:butt;stroke-linejoin:miter;stroke-miterlimit:4;stroke-dasharray:none;stroke-dashoffset:0;stroke-opacity:1"
     d="M 142.18048,117.5472 C 142.25599,117.84163 142.34344,118.12218 142.4156,118.42053 142.67521,119.49382 142.91308,120.59248 143.13081,121.71283 143.34853,122.83319 143.54589,123.9753 143.72405,125.13692 143.90221,126.29853 144.06115,127.47918 144.20206,128.67623 144.48387,131.07035 144.69359,133.52983 144.84026,136.03083 144.98693,138.53182 145.07068,141.0747 145.10071,143.63605 144.02838,143.05532 142.98385,142.54169 141.96809,142.09196 140.95232,141.64223 139.96524,141.25647 139.00703,140.92975 138.04881,140.60304 137.11981,140.33581 136.22012,140.12412 135.32042,139.91243 134.45012,139.75593 133.60994,139.65128 132.76975,139.54662 131.95929,139.49358 131.1796,139.48798 130.3999,139.48238 129.65094,139.52448 128.93271,139.60994 128.21448,139.6954 127.52712,139.82432 126.87133,139.99286 126.21555,140.16139 125.59145,140.36935 124.9991,140.61298 124.40674,140.8566 123.846,141.13579 123.31806,141.44652 122.79011,141.75724 122.29492,142.09935 121.83236,142.46919 121.3698,142.83904 120.94026,143.23678 120.54407,143.65775 120.14787,144.07872 119.78512,144.52328 119.45628,144.98739 119.12743,145.45149 118.83209,145.93507 118.57158,146.43433 118.31106,146.93359 118.08531,147.44837 117.8941,147.9748 117.70289,148.50123 117.54632,149.03943 117.42539,149.58504 117.30447,150.13065 117.21925,150.68344 117.16959,151.24023 117.11994,151.79703 117.10618,152.35765 117.12877,152.91765 117.15137,153.47765 117.2102,154.03727 117.30602,154.59249 117.40184,155.1477 117.53441,155.69852 117.70445,156.24096 117.87448,156.78341 118.08192,157.31763 118.32715,157.83932 118.57237,158.36101 118.85532,158.87031 119.17671,159.36325 119.4981,159.8562 119.85769,160.33279 120.25623,160.78901 120.65477,161.24522 121.09214,161.68079 121.56881,162.09229 122.04548,162.50378 122.56178,162.89105 123.11755,163.24984 123.67333,163.60863 124.26866,163.93928 124.90453,164.23737 125.54039,164.53547 126.21693,164.80119 126.93386,165.03061 127.6508,165.26002 128.40812,165.45302 129.20711,165.60577 130.00609,165.75851 130.84639,165.87099 131.7284,165.93908 132.61041,166.00717 133.5343,166.03081 134.50033,166.00626 135.46635,165.98171 136.47445,165.90872 137.52546,165.78353 138.57648,165.65835 139.67045,165.48093 140.80743,165.24713 141.94442,165.01333 143.12437,164.72317 144.3483,164.37277 144.14066,167.05614 143.89982,169.68811 143.63723,172.23947 143.37465,174.79083 143.09036,177.26177 142.79594,179.623 142.20711,184.34546 141.57817,188.62915 141.0007,192.24238 140.83842,193.25778 140.7357,193.75346 140.58367,194.65774 H 246.06251 V 115.50391 C 243.25286,115.34539 240.424,115.19997 237.65062,115.02177 228.27243,114.41921 219.10729,113.74245 210.19389,113.2503 210.46587,112.23788 210.68795,111.24792 210.8631,110.28201 211.03826,109.3161 211.16657,108.37413 211.2512,107.45634 211.33582,106.53855 211.37688,105.64498 211.37729,104.77692 211.37769,103.90886 211.3375,103.06616 211.25998,102.24942 211.18246,101.4327 211.06754,100.64231 210.9184,99.878512 210.76926,99.114716 210.58561,98.377565 210.37115,97.66831 210.15668,96.959055 209.91135,96.277618 209.63786,95.624507 209.36437,94.971396 209.06283,94.346598 208.73662,93.751236 208.41041,93.155876 208.05971,92.589673 207.68707,92.053666 207.31444,91.517658 206.92006,91.012012 206.5073,90.536964 206.09454,90.061912 205.663,89.617748 205.21642,89.20526 204.76984,88.792775 204.30818,88.411531 203.83408,88.063213 203.35997,87.714894 202.87368,87.399564 202.37835,87.117018 201.88302,86.834469 201.37862,86.584946 200.86837,86.369776 200.35811,86.154604 199.84212,85.973361 199.32324,85.827174 198.80437,85.680984 198.28278,85.56998 197.76158,85.494376 197.24038,85.418774 196.7192,85.378933 196.20198,85.37552 195.68476,85.372109 195.17156,85.404875 194.66461,85.475257 194.15766,85.545639 193.6574,85.653486 193.16703,85.799268 192.67666,85.945048 192.19585,86.128902 191.72836,86.351689 191.26086,86.574474 190.80655,86.836292 190.36823,87.137687 189.92992,87.439082 189.50758,87.780304 189.10474,88.161913 188.7019,88.543521 188.31859,88.965593 187.95752,89.429021 187.59646,89.892447 187.25765,90.396806 186.94467,90.943657 186.63168,91.490506 186.34442,92.07963 186.08581,92.711508 185.8272,93.343383 185.59748,94.018198 185.39954,94.736705 185.20161,95.455216 185.03544,96.217676 184.90448,97.024423 184.77352,97.831166 184.67743,98.682201 184.61975,99.578787 184.56206,100.47537 184.54307,101.41746 184.56497,102.40549 184.58686,103.39352 184.64995,104.42758 184.75772,105.50866 184.86549,106.58974 185.01769,107.71773 185.21764,108.89346 185.41759,110.0692 185.66543,111.29256 185.96385,112.56456 183.49657,112.58705 181.05395,112.64622 178.63716,112.74853 176.22038,112.85083 173.82934,112.9962 171.46499,113.19139 169.10065,113.38658 166.76297,113.63181 164.45302,113.93295 162.14307,114.23409 159.86053,114.59127 157.60692,115.01144 154.15814,115.65443 150.84489,116.2293 147.65559,116.74156 145.75873,117.04624 143.99164,117.28565 142.18048,117.5472 Z"
     id="path5270" />
  <path
     inkscape:connector-curvature="0"
     style="opacity:1;vector-effect:none;fill:#000000;fill-opacity:1;fill-rule:nonzero;stroke:#000000;stroke-width:0.26458333;stroke-linecap:butt;stroke-linejoin:miter;stroke-miterlimit:4;stroke-dasharray:none;stroke-dashoffset:0;stroke-opacity:1"
     d="M 106.49479,1.1999999e-6 H 0 V 79.898484 C 0.661892,79.887274 1.36411,79.854709 2.013831,79.849907 4.242752,79.833437 6.401613,79.854196 8.50284,79.905202 10.604068,79.956206 12.647485,80.037785 14.645101,80.143946 16.642716,80.250108 18.594874,80.380452 20.51296,80.529452 22.431045,80.678452 24.315093,80.846026 26.17773,81.025546 29.903005,81.384585 33.541488,81.79243 37.18946,82.199634 36.793826,81.086178 36.458525,80.010125 36.179186,78.971408 35.899849,77.932688 35.676374,76.931291 35.505842,75.96694 35.335311,75.002589 35.21746,74.07504 35.148242,73.184682 35.079025,72.294325 35.058525,71.440851 35.083131,70.624114 35.107734,69.807377 35.177349,69.027692 35.288286,68.284205 35.399223,67.540718 35.551711,66.8335 35.741488,66.162887 35.931263,65.492276 36.158358,64.858271 36.419483,64.260162 36.680608,63.662053 36.975584,63.099938 37.300567,62.573959 37.625547,62.047981 37.980652,61.557986 38.361998,61.103765 38.743348,60.649542 39.150824,60.231383 39.581048,59.848545 40.011268,59.465706 40.464399,59.118056 40.936003,58.806232 41.407607,58.494404 41.898118,58.218013 42.403612,57.976824 42.909109,57.735635 43.429248,57.529697 43.96114,57.358773 44.493034,57.187852 45.036597,57.052076 45.587399,56.951048 46.1382,56.850016 46.696395,56.783601 47.258613,56.752091 47.820831,56.720582 48.386942,56.723757 48.953084,56.761394 49.519229,56.799031 50.085495,56.871506 50.648071,56.977919 51.210649,57.084331 51.769317,57.224783 52.320838,57.399598 52.872357,57.574414 53.416708,57.783591 53.949679,58.026433 54.482648,58.269276 55.004412,58.545858 55.51134,58.856357 56.018269,59.166856 56.510206,59.511069 56.983601,59.888851 57.456999,60.266634 57.91187,60.678193 58.344242,61.122884 58.776616,61.567577 59.186667,62.045676 59.570525,62.556907 59.954382,63.068137 60.311858,63.612486 60.639709,64.189881 60.967559,64.767276 61.265742,65.37759 61.530095,66.020776 61.794448,66.663965 62.025062,67.339954 62.218424,68.048562 62.411787,68.757166 62.568114,69.498547 62.682996,70.272197 62.797878,71.045849 62.871644,71.851812 62.900555,72.690139 62.929463,73.528463 62.913432,74.398723 62.848876,75.301349 62.784321,76.203972 62.671256,77.138759 62.505746,78.105311 62.340236,79.071865 62.122378,80.070368 61.848421,81.100476 61.574463,82.130586 61.244062,83.192523 60.854167,84.285813 62.832414,84.379005 64.859392,84.44799 66.945785,84.487868 69.032176,84.527743 71.17833,84.538202 73.394485,84.513707 75.610643,84.489209 77.896807,84.430186 80.264352,84.330255 82.631896,84.230322 85.080456,84.089831 87.621009,83.903406 90.16156,83.716983 92.79439,83.484583 95.52957,83.200606 98.26475,82.916629 101.10269,82.580857 104.05411,82.188265 105.25015,82.029171 106.55059,81.817669 107.78464,81.639461 107.58849,80.874725 107.3942,80.107614 107.17485,79.370868 106.23116,76.201144 105.3549,73.171379 104.55331,70.255144 103.75172,67.338909 103.02489,64.53653 102.38031,61.821035 101.73574,59.105536 101.1735,56.47688 100.70083,53.909371 100.22816,51.341862 99.84515,48.835332 99.5593,46.363063 100.70613,46.923085 101.82518,47.417515 102.91516,47.850828 104.00515,48.284139 105.06627,48.656511 106.09792,48.971172 107.12956,49.285833 108.1316,49.542764 109.10342,49.746835 110.07524,49.950905 111.01651,50.102115 111.92702,50.203654 112.83753,50.305196 113.7174,50.357295 114.5651,50.36437 115.41281,50.371442 116.22857,50.333115 117.01198,50.253782 117.79539,50.174447 118.5464,50.05386 119.26404,49.896179 119.98167,49.738501 120.66574,49.543818 121.31611,49.315853 121.96647,49.08789 122.58297,48.826762 123.16458,48.536573 123.74618,48.246386 124.29291,47.926978 124.80427,47.582625 125.31563,47.238275 125.79143,46.869272 126.23105,46.478818 126.67068,46.088364 127.0744,45.676895 127.4408,45.248402 127.8072,44.819907 128.13664,44.37414 128.42834,43.915667 128.72003,43.457194 128.97404,42.98581 129.18953,42.505417 129.40502,42.025023 129.58193,41.535674 129.71973,41.041424 129.85753,40.547175 129.95618,40.048022 130.0148,39.547976 130.07343,39.047929 130.09214,38.547142 130.0701,38.049357 130.04805,37.551575 129.98516,37.056802 129.88096,36.569344 129.77676,36.081889 129.6311,35.60181 129.44326,35.132741 129.25542,34.663669 129.02532,34.205422 128.75235,33.762798 128.47937,33.320173 128.16368,32.892956 127.80408,32.484839 127.44449,32.076724 127.04102,31.687665 126.59331,31.322119 126.1456,30.956574 125.6537,30.614359 125.11639,30.299444 124.57909,29.984529 123.99658,29.697321 123.36818,29.441099 122.73978,29.184874 122.0655,28.959811 121.34453,28.770338 120.62356,28.580867 119.85583,28.426625 119.0408,28.311968 118.22576,28.197308 117.36291,28.122061 116.45232,28.090276 115.54173,28.058492 114.58313,28.070398 113.5755,28.129551 112.56786,28.188701 111.51131,28.295413 110.40515,28.453563 109.29898,28.611709 108.14333,28.821392 106.93714,29.086597 105.73096,29.351802 104.47452,29.672622 103.16683,30.052948 101.85914,30.43327 100.50025,30.872878 99.08956,31.37638 99.176,29.903863 99.30318,28.424244 99.473,26.93169 99.64282,25.439137 99.85526,23.933643 100.11172,22.409486 100.36818,20.885329 100.66865,19.342471 101.01502,17.775144 101.3614,16.207815 101.7537,14.616106 102.19325,12.99404 102.6328,11.371974 103.1197,9.719406 103.65569,8.031036 104.19168,6.342665 104.77646,4.6182662 105.41217,2.8520232 105.74609,1.9242582 106.13267,0.9516862 106.49479,1.1999999e-6 Z"
     id="path5268" />
  <path
     inkscape:connector-curvature="0"
     style="opacity:1;vector-effect:none;fill:#000000;fill-opacity:1;fill-rule:nonzero;stroke:#000000;stroke-width:0.26458333;stroke-linecap:butt;stroke-linejoin:miter;stroke-miterlimit:4;stroke-dasharray:none;stroke-dashoffset:0;stroke-opacity:1"
     d="M 106.49479,1.1999999e-6 C 106.13267,0.9516862 105.74609,1.9242582 105.41217,2.8520232 104.77646,4.6182662 104.19168,6.342665 103.65569,8.031036 103.1197,9.719406 102.6328,11.371974 102.19325,12.99404 101.7537,14.616106 101.3614,16.207815 101.01502,17.775144 100.66865,19.342471 100.36818,20.885329 100.11172,22.409486 99.85526,23.933643 99.64282,25.439137 99.473,26.93169 99.30318,28.424244 99.176,29.903863 99.08956,31.37638 100.50025,30.872878 101.85914,30.43327 103.16683,30.052948 104.47452,29.672622 105.73096,29.351802 106.93714,29.086597 108.14333,28.821392 109.29898,28.611709 110.40515,28.453563 111.51131,28.295413 112.56786,28.188701 113.5755,28.129551 114.58313,28.070398 115.54173,28.058492 116.45232,28.090276 117.36291,28.122061 118.22576,28.197308 119.0408,28.311968 119.85583,28.426625 120.62356,28.580867 121.34453,28.770338 122.0655,28.959811 122.73978,29.184874 123.36818,29.441099 123.99658,29.697321 124.57909,29.984529 125.11639,30.299444 125.6537,30.614359 126.1456,30.956574 126.59331,31.322119 127.04102,31.687665 127.44449,32.076724 127.80408,32.484839 128.16368,32.892956 128.47937,33.320173 128.75235,33.762798 129.02532,34.205422 129.25542,34.663669 129.44326,35.132741 129.6311,35.60181 129.77676,36.081889 129.88096,36.569344 129.98516,37.056802 130.04805,37.551575 130.0701,38.049357 130.09214,38.547142 130.07343,39.047929 130.0148,39.547976 129.95618,40.048022 129.85753,40.547175 129.71973,41.041424 129.58193,41.535674 129.40502,42.025023 129.18953,42.505417 128.97404,42.98581 128.72003,43.457194 128.42834,43.915667 128.13664,44.37414 127.8072,44.819907 127.4408,45.248402 127.0744,45.676895 126.67068,46.088364 126.23105,46.478818 125.79143,46.869272 125.31563,47.238275 124.80427,47.582625 124.29291,47.926978 123.74618,48.246386 123.16458,48.536573 122.58297,48.826762 121.96647,49.08789 121.31611,49.315853 120.66574,49.543818 119.98167,49.738501 119.26404,49.896179 118.5464,50.05386 117.79539,50.174447 117.01198,50.253782 116.22857,50.333115 115.41281,50.371442 114.5651,50.36437 113.7174,50.357295 112.83753,50.305196 111.92702,50.203654 111.01651,50.102115 110.07524,49.950905 109.10342,49.746835 108.1316,49.542764 107.12956,49.285833 106.09792,48.971172 105.06627,48.656511 104.00515,48.284139 102.91516,47.850828 101.82518,47.417515 100.70613,46.923085 99.5593,46.363063 99.84515,48.835332 100.22816,51.341862 100.70083,53.909371 101.1735,56.47688 101.73574,59.105536 102.38031,61.821035 103.02489,64.53653 103.75172,67.338909 104.55331,70.255144 105.3549,73.171379 106.23116,76.201144 107.17485,79.370868 107.3942,80.107614 107.58849,80.874725 107.78464,81.639461 109.5958,81.377915 111.36289,81.138499 113.25975,80.833826 116.44905,80.321564 119.7623,79.746693 123.21108,79.1037 125.46469,78.683534 127.74723,78.326357 130.05718,78.025213 132.36713,77.72407 134.70481,77.478846 137.06915,77.283655 139.4335,77.088464 141.82454,76.943097 144.24132,76.84079 146.65811,76.738481 149.10073,76.67931 151.56801,76.65682 151.26959,75.384825 151.02175,74.161463 150.8218,72.985726 150.62185,71.809989 150.46965,70.682002 150.36188,69.60092 150.25411,68.51984 150.19102,67.485782 150.16913,66.497751 150.14723,65.50972 150.16622,64.567637 150.22391,63.671049 150.28159,62.774463 150.37768,61.923428 150.50864,61.116685 150.6396,60.309938 150.80577,59.547478 151.0037,58.828967 151.20164,58.11046 151.43136,57.435645 151.68997,56.80377 151.94858,56.171892 152.23584,55.582768 152.54883,55.035919 152.86181,54.489068 153.20062,53.984709 153.56168,53.521283 153.92275,53.057855 154.30606,52.635783 154.7089,52.254175 155.11174,51.872566 155.53408,51.531344 155.97239,51.229949 156.41071,50.928554 156.86502,50.666736 157.33252,50.443951 157.80001,50.221164 158.28082,50.03731 158.77119,49.89153 159.26156,49.745748 159.76182,49.637901 160.26877,49.567519 160.77572,49.497137 161.28892,49.464371 161.80614,49.467782 162.32336,49.471195 162.84454,49.511036 163.36574,49.586638 163.88694,49.662242 164.40853,49.773246 164.9274,49.919436 165.44628,50.065623 165.96227,50.246866 166.47253,50.462038 166.98278,50.677208 167.48718,50.926731 167.98251,51.20928 168.47784,51.491826 168.96413,51.807156 169.43824,52.155475 169.91234,52.503793 170.374,52.885037 170.82058,53.297522 171.26716,53.71001 171.6987,54.154174 172.11146,54.629226 172.52422,55.104274 172.9186,55.60992 173.29123,56.145928 173.66387,56.681935 174.01457,57.248138 174.34078,57.843498 174.66699,58.43886 174.96853,59.063658 175.24202,59.716769 175.51551,60.36988 175.76084,61.051317 175.97531,61.760572 176.18977,62.469827 176.37342,63.206978 176.52256,63.970774 176.6717,64.734568 176.78662,65.524958 176.86414,66.341687 176.94166,67.158419 176.98185,68.001122 176.98145,68.869183 176.98104,69.737244 176.93998,70.630818 176.85536,71.548605 176.77073,72.466391 176.64242,73.408364 176.46726,74.374273 176.29211,75.340182 176.07003,76.330142 175.79805,77.342567 184.71145,77.834716 193.87659,78.511475 203.25478,79.114035 206.02816,79.292229 208.85702,79.437657 211.66667,79.596177 V 1.1999999e-6 Z"
     id="rect5237" />
</svg>
